# Blender 4.1.1
# www.blender.org
o Outer_wall_mesh
v -12.106970 1.421350 -1.928280
v -12.506969 1.421350 -1.936680
v -11.975569 5.421350 -1.928280
v -12.638170 5.421350 -1.928280
v -11.975569 5.421350 2.071720
v -12.638170 5.421350 2.071720
v -12.106970 1.421351 2.071721
v -12.506969 1.421351 2.063320
v -12.106970 5.021350 -1.928280
v -12.106970 5.021351 2.071720
v -12.506969 5.021351 2.071720
v -12.506969 5.021350 -1.928280
v -12.106970 2.141351 -1.928280
v -12.106970 2.141351 2.071721
v -12.506969 2.141351 2.063320
v -12.506969 2.141351 -1.936680
v -12.106970 2.429351 2.071720
v -12.106970 2.429351 -1.928280
v -12.506969 2.429351 -1.928280
v -12.506969 2.429351 2.071720
v -11.975569 5.021350 -1.928280
v -11.975569 5.021351 2.071720
v -12.638170 5.021351 2.071720
v -12.638170 5.021350 -1.928280
v -11.975569 2.363750 -1.928280
v -12.041369 2.429351 -1.928280
v -11.975569 2.363751 2.071720
v -12.041369 2.429351 2.071720
v -12.638170 2.363751 2.071720
v -12.572569 2.429351 2.071720
v -12.638170 2.363750 -1.928280
v -12.572569 2.429351 -1.928280
v -11.975569 2.206950 -1.928280
v -12.041369 2.141351 -1.928280
v -11.975569 2.206950 2.071720
v -12.041369 2.141351 2.071721
v -12.638170 2.206950 2.071720
v -12.572569 2.141351 2.071721
v -12.638170 2.206950 -1.928280
v -12.572569 2.141351 -1.928280
v -12.106970 -2.578650 -1.928279
v -12.506969 -2.578650 -1.936679
v -11.975569 1.421350 -1.928280
v -12.638170 1.421350 -1.928280
v -11.975569 1.421351 2.071721
v -12.638170 1.421351 2.071721
v -12.106970 -2.578650 2.071721
v -12.506969 -2.578650 2.063321
v -12.106970 1.021350 -1.928280
v -12.106970 1.021350 2.071721
v -12.506969 1.021350 2.071721
v -12.506969 1.021350 -1.928280
v -12.106970 -1.858650 -1.928279
v -12.106970 -1.858649 2.071721
v -12.506969 -1.858649 2.063321
v -12.506969 -1.858650 -1.936679
v -12.106970 -1.570650 2.071721
v -12.106970 -1.570650 -1.928279
v -12.506969 -1.570650 -1.928279
v -12.506969 -1.570650 2.071721
v -11.975569 1.021350 -1.928280
v -11.975569 1.021350 2.071721
v -12.638170 1.021350 2.071721
v -12.638170 1.021350 -1.928280
v -11.975569 -1.636250 -1.928279
v -12.041369 -1.570650 -1.928279
v -11.975569 -1.636250 2.071721
v -12.041369 -1.570650 2.071721
v -12.638170 -1.636250 2.071721
v -12.572569 -1.570650 2.071721
v -12.638170 -1.636250 -1.928279
v -12.572569 -1.570650 -1.928279
v -11.975569 -1.793050 -1.928279
v -12.041369 -1.858650 -1.928279
v -11.975569 -1.793050 2.071721
v -12.041369 -1.858649 2.071721
v -12.638170 -1.793050 2.071721
v -12.572569 -1.858649 2.071721
v -12.638170 -1.793050 -1.928279
v -12.572569 -1.858650 -1.928279
vn 0.0210 -0.0000 -0.9998
vn 0.0139 0.0045 -0.9999
vn 0.0166 0.0039 -0.9999
vn -0.0000 1.0000 -0.0000
vn -0.0166 -0.0039 0.9999
vn -0.0139 -0.0045 0.9999
vn -0.0210 -0.0000 0.9998
vn -0.0000 -1.0000 -0.0000
vn -1.0000 -0.0000 -0.0000
vn 1.0000 -0.0000 -0.0000
vn -0.0000 -0.0000 1.0000
vn -0.0000 -0.0000 -1.0000
vn -0.0000 -0.0017 1.0000
vn -0.0010 -0.0014 1.0000
vn 0.0010 0.0014 -1.0000
vn -0.0000 0.0017 -1.0000
vn 0.0361 -0.0082 0.9993
vn -0.0361 0.0082 -0.9993
vn 0.7071 0.7071 -0.0000
vn -0.7071 0.7071 -0.0000
vn 0.7071 -0.7071 -0.0000
vn -0.7071 -0.7071 -0.0000
vt 0.031644 0.630404
vt 0.066632 0.630409
vt 0.066623 0.693387
vt 0.031635 0.693383
vt 0.303023 0.975411
vt 0.246156 0.975411
vt 0.246156 0.632083
vt 0.303023 0.632083
vt 0.066182 0.693351
vt 0.031194 0.693404
vt 0.031099 0.630425
vt 0.066087 0.630373
vt 0.209149 0.985807
vt 0.173157 0.985811
vt 0.173125 0.625893
vt 0.209117 0.625890
vt 0.002818 -0.000992
vt 0.999017 -0.001072
vt 0.999023 0.415917
vt 0.002824 0.415997
vt 0.002818 -0.000991
vt 0.002824 0.415998
vt 0.108595 0.975459
vt 0.108600 0.632358
vt 0.142910 0.632359
vt 0.142905 0.975459
vt 0.078094 0.980235
vt 0.020142 0.980322
vt 0.031572 0.945317
vt 0.066560 0.945264
vt 0.031600 0.945296
vt 0.066588 0.945301
vt 0.078066 0.980291
vt 0.020114 0.980283
vt 0.011352 0.830533
vt 0.390669 0.830222
vt 0.390977 0.991018
vt 0.011660 0.991329
vt 0.031232 0.718595
vt 0.066220 0.718542
vt 0.031632 0.718574
vt 0.066620 0.718579
vt 0.024341 0.447983
vt 0.983488 0.447868
vt 0.984108 0.473977
vt 0.024999 0.474091
vt 0.024370 0.448024
vt 0.983467 0.447829
vt 0.984109 0.473945
vt 0.025072 0.474140
vt 0.097336 0.975459
vt 0.097341 0.632358
vt 0.020118 0.945295
vt 0.078042 0.945247
vt 0.020090 0.945334
vt 0.078071 0.945303
vt 0.007104 0.424244
vt 1.001360 0.424322
vt 0.992437 0.433527
vt 0.016563 0.433165
vt 1.001296 0.497732
vt 0.991857 0.488801
vt 0.007176 0.497654
vt 0.016077 0.488440
vt 0.007119 0.424282
vt 1.001345 0.424278
vt 0.992422 0.433486
vt 0.016593 0.433198
vt 1.001323 0.497698
vt 0.991873 0.488770
vt 0.007165 0.497676
vt 0.016090 0.488469
s 1
f 1/1/1 2/2/1 16/3/2 13/4/3
f 3/5/4 4/6/4 6/7/4 5/8/4
f 14/9/5 15/10/6 8/11/7 7/12/7
f 7/13/8 8/14/8 2/15/8 1/16/8
f 2/17/9 8/18/9 15/19/9 16/20/9
f 7/21/10 1/18/10 13/19/10 14/22/10
f 22/23/10 21/24/10 3/25/10 5/26/10
f 5/27/11 6/28/11 11/29/11 10/30/11
f 24/23/9 23/24/9 6/25/9 4/26/9
f 9/31/12 12/32/12 4/33/12 3/34/12
f 17/35/10 18/36/10 9/37/10 10/38/10
f 10/30/11 11/29/11 20/39/13 17/40/14
f 19/35/9 20/36/9 11/37/9 12/38/9
f 18/41/15 19/42/16 12/32/12 9/31/12
f 35/43/10 33/44/10 25/45/10 27/46/10
f 13/4/3 16/3/2 19/42/16 18/41/15
f 39/47/9 37/48/9 29/49/9 31/50/9
f 17/40/14 20/39/13 15/10/6 14/9/5
f 10/51/8 9/52/8 21/24/8 22/23/8
f 9/31/12 3/34/12 21/53/12
f 5/27/11 10/30/11 22/54/11
f 12/51/8 11/52/8 23/24/8 24/23/8
f 11/29/11 6/28/11 23/55/11
f 4/33/12 12/32/12 24/56/12
f 14/57/8 13/58/8 34/59/8 36/60/8
f 13/58/3 18/61/15 26/62/12 25/45/12 33/44/12 34/59/12
f 18/61/4 17/63/4 28/64/4 26/62/4
f 17/63/14 14/57/5 36/60/11 35/43/11 27/46/11 28/64/11
f 16/65/8 15/66/8 38/67/8 40/68/8
f 15/66/6 20/69/13 30/70/17 29/49/17 37/48/17 38/67/17
f 20/69/4 19/71/4 32/72/4 30/70/4
f 19/71/16 16/65/2 40/68/18 39/47/18 31/50/18 32/72/18
f 25/45/19 26/62/19 28/64/19 27/46/19
f 29/49/20 30/70/20 32/72/20 31/50/20
f 34/59/21 33/44/21 35/43/21 36/60/21
f 38/67/22 37/48/22 39/47/22 40/68/22
f 41/1/1 42/2/1 56/3/2 53/4/3
f 43/5/4 44/6/4 46/7/4 45/8/4
f 54/9/5 55/10/6 48/11/7 47/12/7
f 42/17/9 48/18/9 55/19/9 56/20/9
f 47/21/10 41/18/10 53/19/10 54/22/10
f 62/23/10 61/24/10 43/25/10 45/26/10
f 45/27/11 46/28/11 51/29/11 50/30/11
f 64/23/9 63/24/9 46/25/9 44/26/9
f 49/31/12 52/32/12 44/33/12 43/34/12
f 57/35/10 58/36/10 49/37/10 50/38/10
f 50/30/11 51/29/11 60/39/13 57/40/14
f 59/35/9 60/36/9 51/37/9 52/38/9
f 58/41/15 59/42/16 52/32/12 49/31/12
f 75/43/10 73/44/10 65/45/10 67/46/10
f 53/4/3 56/3/2 59/42/16 58/41/15
f 79/47/9 77/48/9 69/49/9 71/50/9
f 57/40/14 60/39/13 55/10/6 54/9/5
f 50/51/8 49/52/8 61/24/8 62/23/8
f 49/31/12 43/34/12 61/53/12
f 45/27/11 50/30/11 62/54/11
f 52/51/8 51/52/8 63/24/8 64/23/8
f 51/29/11 46/28/11 63/55/11
f 44/33/12 52/32/12 64/56/12
f 54/57/8 53/58/8 74/59/8 76/60/8
f 53/58/3 58/61/15 66/62/12 65/45/12 73/44/12 74/59/12
f 58/61/4 57/63/4 68/64/4 66/62/4
f 57/63/14 54/57/5 76/60/11 75/43/11 67/46/11 68/64/11
f 56/65/8 55/66/8 78/67/8 80/68/8
f 55/66/6 60/69/13 70/70/17 69/49/17 77/48/17 78/67/17
f 60/69/4 59/71/4 72/72/4 70/70/4
f 59/71/16 56/65/2 80/68/18 79/47/18 71/50/18 72/72/18
f 65/45/19 66/62/19 68/64/19 67/46/19
f 69/49/20 70/70/20 72/72/20 71/50/20
f 74/59/21 73/44/21 75/43/21 76/60/21
f 78/67/22 77/48/22 79/47/22 80/68/22
